<?xml version="1.0" encoding="utf-8"?>
<!-- Generator: Adobe Illustrator 16.0.0, SVG Export Plug-In . SVG Version: 6.00 Build 0)  -->
<!DOCTYPE svg PUBLIC "-//W3C//DTD SVG 1.1//EN" "http://www.w3.org/Graphics/SVG/1.1/DTD/svg11.dtd">
<svg version="1.1" id="分離模式" xmlns="http://www.w3.org/2000/svg" xmlns:xlink="http://www.w3.org/1999/xlink" x="0px"
	 y="0px" width="69px" height="53.054px" viewBox="0 0 69 53.054" enable-background="new 0 0 69 53.054" xml:space="preserve">
<g>
	<polygon fill="#FFFDE9" points="-30.775,7.125 -34.888,0 -39.003,7.125 -39.064,7.125 -39.064,53.054 -30.713,53.054 
		-30.713,7.125 	"/>
	<polygon fill="#FFFDE9" points="38.813,7.125 34.7,0 30.585,7.125 30.524,7.125 30.524,53.054 38.875,53.054 38.875,7.125 	"/>
	<polygon fill="#FFFDE9" points="108.402,7.125 104.288,0 100.173,7.125 100.112,7.125 100.112,53.054 108.463,53.054 
		108.463,7.125 	"/>
	<polygon fill="#FFFDE9" points="177.99,7.125 173.876,0 169.761,7.125 169.7,7.125 169.7,53.054 178.051,53.054 178.051,7.125 	"/>
	<polygon fill="#FFFDE9" points="247.578,7.125 243.464,0 239.35,7.125 239.288,7.125 239.288,53.054 247.64,53.054 247.64,7.125 	
		"/>
	<polygon fill="#FFFDE9" points="317.167,7.125 313.052,0 308.938,7.125 308.877,7.125 308.877,53.054 317.228,53.054 
		317.228,7.125 	"/>
	<polygon fill="#FFFDE9" points="386.755,7.125 382.641,0 378.526,7.125 378.464,7.125 378.464,53.054 386.815,53.054 
		386.815,7.125 	"/>
	<polygon fill="#FFFDE9" points="456.343,7.125 452.229,0 448.114,7.125 448.053,7.125 448.053,53.054 456.403,53.054 
		456.403,7.125 	"/>
	<polygon fill="#FFFDE9" points="525.931,7.125 521.816,0 517.702,7.125 517.641,7.125 517.641,53.054 525.991,53.054 
		525.991,7.125 	"/>
	<polygon fill="#FFFDE9" points="595.519,7.125 591.404,0 587.29,7.125 587.229,7.125 587.229,53.054 595.58,53.054 595.58,7.125 	
		"/>
	<polygon fill="#FFFDE9" points="665.106,7.125 660.992,0 656.878,7.125 656.816,7.125 656.816,53.054 665.168,53.054 
		665.168,7.125 	"/>
	<polygon fill="#FFFDE9" points="734.695,7.125 730.581,0 726.466,7.125 726.404,7.125 726.404,53.054 734.756,53.054 
		734.756,7.125 	"/>
</g>
<g>
	<polygon fill="#FFFDE9" points="781.146,37.045 -52,37.045 -52,44.004 781.146,44.004 1581.146,44.004 1581.146,37.045 	"/>
	<polygon fill="#FFFDE9" points="781.146,19.648 -52,19.648 -52,26.606 781.146,26.606 1581.146,26.606 1581.146,19.648 	"/>
	<polygon fill="#FFFDE9" points="802.371,7.125 798.258,0 794.144,7.125 794.082,7.125 794.082,53.054 802.434,53.054 
		802.434,7.125 	"/>
	<polygon fill="#FFFDE9" points="871.96,7.125 867.846,0 863.732,7.125 863.67,7.125 863.67,53.054 872.021,53.054 872.021,7.125 	
		"/>
	<polygon fill="#FFFDE9" points="941.549,7.125 937.434,0 933.32,7.125 933.259,7.125 933.259,53.054 941.609,53.054 941.609,7.125 
			"/>
	<polygon fill="#FFFDE9" points="1011.137,7.125 1007.022,0 1002.908,7.125 1002.847,7.125 1002.847,53.054 1011.197,53.054 
		1011.197,7.125 	"/>
	<polygon fill="#FFFDE9" points="1080.725,7.125 1076.61,0 1072.496,7.125 1072.435,7.125 1072.435,53.054 1080.786,53.054 
		1080.786,7.125 	"/>
	<polygon fill="#FFFDE9" points="1150.313,7.125 1146.198,0 1142.084,7.125 1142.023,7.125 1142.023,53.054 1150.374,53.054 
		1150.374,7.125 	"/>
	<polygon fill="#FFFDE9" points="1219.901,7.125 1215.787,0 1211.673,7.125 1211.61,7.125 1211.61,53.054 1219.962,53.054 
		1219.962,7.125 	"/>
	<polygon fill="#FFFDE9" points="1289.489,7.125 1285.375,0 1281.261,7.125 1281.199,7.125 1281.199,53.054 1289.55,53.054 
		1289.55,7.125 	"/>
	<polygon fill="#FFFDE9" points="1359.077,7.125 1354.963,0 1350.849,7.125 1350.787,7.125 1350.787,53.054 1359.138,53.054 
		1359.138,7.125 	"/>
	<polygon fill="#FFFDE9" points="1428.665,7.125 1424.551,0 1420.437,7.125 1420.375,7.125 1420.375,53.054 1428.727,53.054 
		1428.727,7.125 	"/>
	<polygon fill="#FFFDE9" points="1498.253,7.125 1494.139,0 1490.024,7.125 1489.963,7.125 1489.963,53.054 1498.314,53.054 
		1498.314,7.125 	"/>
	<polygon fill="#FFFDE9" points="1567.842,7.125 1563.728,0 1559.612,7.125 1559.551,7.125 1559.551,53.054 1567.902,53.054 
		1567.902,7.125 	"/>
</g>
</svg>
