<?xml version="1.0" encoding="utf-8"?>
<!-- Generator: Adobe Illustrator 16.0.0, SVG Export Plug-In . SVG Version: 6.00 Build 0)  -->
<!DOCTYPE svg PUBLIC "-//W3C//DTD SVG 1.1//EN" "http://www.w3.org/Graphics/SVG/1.1/DTD/svg11.dtd">
<svg version="1.1" id="圖層_1" xmlns="http://www.w3.org/2000/svg" xmlns:xlink="http://www.w3.org/1999/xlink" x="0px" y="0px"
	 width="80px" height="80.008px" viewBox="30.063 0 80 80.008" enable-background="new 30.063 0 80 80.008" xml:space="preserve">
<g>
	<g>
		<path fill="#565656" d="M108.168,40c0,21.044-17.068,38.112-38.092,38.112C49.025,78.112,31.97,61.044,31.97,40
			c0-21.044,17.055-38.099,38.105-38.099C91.1,1.902,108.168,18.956,108.168,40z"/>
		<path fill="#9B9B9B" d="M70.076,80.008c-22.062,0-40.013-17.953-40.013-40.007c0-22.054,17.952-40,40.013-40
			c22.062,0,39.987,17.947,39.987,40C110.063,62.054,92.138,80.008,70.076,80.008z M70.076,3.825
			C50.117,3.825,33.88,20.049,33.88,40c0,19.951,16.236,36.204,36.195,36.204c19.945,0,36.183-16.253,36.183-36.204
			C106.259,20.049,90.021,3.825,70.076,3.825z"/>
	</g>
	<path fill="#303030" d="M93.658,40.007c0,13.028-10.552,23.596-23.581,23.596c-13.043,0-23.61-10.568-23.61-23.596
		c0-13.042,10.568-23.603,23.61-23.603C83.106,16.404,93.658,26.965,93.658,40.007z"/>
	<path fill="#CECECE" d="M88.582,40.018c0,10.214-8.298,18.507-18.52,18.507c-10.235,0-18.519-8.293-18.519-18.507
		c0-10.234,8.285-18.535,18.519-18.535C80.284,21.483,88.582,29.783,88.582,40.018z"/>
	<g>
		<g>
			<polygon fill="#303030" points="69.108,28.776 68.127,27.103 69.108,25.415 71.044,25.415 72.026,27.103 71.044,28.776 			"/>
			<path fill="#CECECE" d="M70.726,27.103c0,0.345-0.29,0.629-0.649,0.629c-0.345,0-0.636-0.284-0.636-0.629
				c0-0.361,0.291-0.65,0.636-0.65C70.436,26.453,70.726,26.742,70.726,27.103z"/>
		</g>
		<g>
			<polygon fill="#303030" points="61.459,32.751 59.579,32.253 59.081,30.36 60.45,28.99 62.317,29.489 62.828,31.376 			"/>
			<path fill="#CECECE" d="M61.405,30.422c0.249,0.249,0.249,0.643,0,0.898c-0.25,0.242-0.666,0.242-0.9,0
				c-0.249-0.256-0.249-0.65,0-0.898C60.739,30.173,61.155,30.173,61.405,30.422z"/>
		</g>
		<g>
			<polygon fill="#303030" points="58.847,40.961 57.158,41.935 55.47,40.961 55.484,39.01 57.158,38.043 58.847,39.01 			"/>
			<path fill="#CECECE" d="M57.158,39.357c0.359,0,0.65,0.277,0.65,0.636c0,0.346-0.292,0.63-0.65,0.63
				c-0.333,0-0.622-0.284-0.622-0.63C56.536,39.634,56.825,39.357,57.158,39.357z"/>
		</g>
		<g>
			<polygon fill="#303030" points="62.828,48.616 62.317,50.491 60.437,51.002 59.053,49.619 59.564,47.738 61.445,47.24 			"/>
			<path fill="#CECECE" d="M60.491,48.672c0.249-0.249,0.651-0.249,0.9,0c0.249,0.243,0.249,0.651,0,0.886
				c-0.25,0.249-0.652,0.249-0.9,0C60.242,49.308,60.242,48.914,60.491,48.672z"/>
		</g>
		<g>
			<polygon fill="#303030" points="71.044,51.209 72.013,52.898 71.044,54.592 69.094,54.579 68.113,52.898 69.094,51.209 			"/>
			<path fill="#CECECE" d="M69.44,52.898c0-0.346,0.276-0.637,0.622-0.637c0.361,0,0.637,0.291,0.637,0.637
				c0,0.345-0.275,0.636-0.637,0.636C69.717,53.534,69.44,53.244,69.44,52.898z"/>
		</g>
		<g>
			<polygon fill="#303030" points="78.693,47.24 80.561,47.745 81.072,49.634 79.689,51.002 77.808,50.504 77.312,48.623 			"/>
			<path fill="#CECECE" d="M78.734,49.578c-0.25-0.25-0.25-0.651,0-0.899c0.25-0.249,0.65-0.249,0.899,0s0.249,0.651,0,0.899
				C79.385,49.82,78.983,49.82,78.734,49.578z"/>
		</g>
		<g>
			<polygon fill="#303030" points="81.294,39.025 82.967,38.056 84.655,39.025 84.655,40.975 82.967,41.957 81.294,40.975 			"/>
			<path fill="#CECECE" d="M82.967,40.643c-0.345,0-0.635-0.292-0.635-0.637c0-0.345,0.291-0.636,0.635-0.636
				c0.36,0,0.636,0.291,0.636,0.636C83.603,40.352,83.327,40.643,82.967,40.643z"/>
		</g>
		<g>
			<polygon fill="#303030" points="77.312,31.384 77.821,29.502 79.689,28.99 81.086,30.372 80.575,32.253 78.693,32.759 			"/>
			<path fill="#CECECE" d="M79.648,31.335c-0.25,0.233-0.649,0.233-0.899,0c-0.249-0.25-0.249-0.658,0-0.899
				c0.25-0.264,0.65-0.264,0.899,0C79.883,30.677,79.883,31.086,79.648,31.335z"/>
		</g>
	</g>
</g>
</svg>
